<svg xmlns="http://www.w3.org/2000/svg" viewBox="0 0 431.9 398.39"><g data-name="Layer 2"><g data-name="Layer 1"><rect width="97.06" height="98.1" x="56.77" y="128.06" fill="#c1e3f7" rx="13" transform="rotate(45 105.296 177.115)"/><rect width="114.32" height="114.32" x="48.14" y="119.95" fill="none" stroke="#008ef8" stroke-linecap="round" stroke-linejoin="round" rx="13" transform="rotate(45 105.296 177.115)"/><rect width="48.59" height="48.59" x="131.02" y="276.5" fill="none" stroke="#008ef8" stroke-linecap="round" stroke-linejoin="round" rx="5.52" transform="rotate(45 155.308 300.79)"/><path fill="#ffccd8" d="M313.9 182.92l-42.34 63.76a60.9 60.9 0 01.22-7.85l35-52.7A54.57 54.57 0 01313.9 182.92zM295.48 193.64l-21.26 32A65 65 0 01295.48 193.64zM326.32 179.57l-53.05 79.9c-.45-2-.82-4-1.07-5.92l48.32-72.78A43.61 43.61 0 01326.32 179.57zM337.46 178.67l-60.67 91.38a40.58 40.58 0 01-1.83-4.77l57.4-86.45A38.05 38.05 0 01337.46 178.67zM347.48 179.47L281.42 279a42.26 42.26 0 01-2.29-4.07l63.73-96c.2 0 .42 0 .67 0C344.84 179.07 346.17 179.25 347.48 179.47zM356.4 181.54L286.79 286.39c-1-1.13-1.84-2.28-2.68-3.49l68.06-102.52A38.31 38.31 0 01356.4 181.54zM364.56 184.61L292.81 292.68c-1.06-1-2.07-1.92-3-3L360.63 183A36.76 36.76 0 01364.56 184.61zM372.32 188.81L299.69 298.2a34.52 34.52 0 01-3.33-2.51l72.37-109C369.94 187.34 371.17 188.05 372.32 188.81zM379.44 194L307.26 302.77c-1.24-.62-2.45-1.28-3.66-2l72.55-109.28A35 35 0 01379.44 194zM386 200.32l-70.39 106c-1.35-.45-2.69-1-4-1.54L383 197.22C384 198.22 385 199.25 386 200.32zM391.67 207.61L324.54 308.74a38.68 38.68 0 01-4.35-1L389.06 204A37.4 37.4 0 01391.67 207.61zM396.57 216.2l-62.22 93.71c-1.17 0-2.33-.1-3.46-.2a13 13 0 01-1.29-.16L394.39 212C395.17 213.33 395.9 214.72 396.57 216.2zM400.3 226.08l-55.41 83.48a46.55 46.55 0 01-5.27.4l59-88.92A37.59 37.59 0 01400.3 226.08zM402.59 238l-45.83 69a49.36 49.36 0 01-6 1.55l51-76.82A54.27 54.27 0 01402.59 238zM402.11 254.53l-30.24 45.55a52.72 52.72 0 01-7.75 4.15l38.79-58.42c-.05 1.57-.14 3.21-.3 4.8C402.49 251.93 402.31 253.26 402.11 254.53zM383.45 290.92l14.79-22.27A65 65 0 01383.45 290.92z"/><path fill="#a0c2ea" d="M305.26 132.94a53.67 53.67 0 0111.37-6.17 43.92 43.92 0 0112.65-2.9 38.73 38.73 0 0113 1.18 113.74 113.74 0 0112.25 4.29 115.29 115.29 0 0012.19 4.18 109.94 109.94 0 0012.59 2.64 110.39 110.39 0 0012.84 1.18c4.3.18 8.61.11 12.92-.11a112.41 112.41 0 01-25.86-.31 102.9 102.9 0 01-25-6.65A112.29 112.29 0 00342 125.93a39.78 39.78 0 00-12.67-1.3C320.76 125.08 312.51 128.32 305.26 132.94zM0 106.36A138.76 138.76 0 0027.78 94c4.39-2.56 8.59-5.39 12.71-8.37s8.22-6 12.06-9.26A64.59 64.59 0 0058 71.1a32.37 32.37 0 004.47-6 15 15 0 002-7 13.62 13.62 0 00-2.1-7c-2.58-4.2-6.86-7.57-11.75-8.28A11.89 11.89 0 0043.57 44a15.09 15.09 0 00-5.44 4.88 14.26 14.26 0 00-2.51 6.84 14.51 14.51 0 00.21 3.66A17.61 17.61 0 0037 62.94a18 18 0 0010.65 9.74c4.76 1.52 10 1 14.81-.22A70.83 70.83 0 0076.54 67a110.68 110.68 0 0013-7.75 78.59 78.59 0 0011.54-9.86 88.1 88.1 0 0017-25.12 88.41 88.41 0 01-16.6 25.46A78.55 78.55 0 0190 59.77 110.77 110.77 0 0176.88 67.7a68.31 68.31 0 01-14.25 5.6A37.44 37.44 0 0155 74.47a22 22 0 01-7.68-.92A19 19 0 0136.09 63.33a18.59 18.59 0 01-1.21-3.72 15.69 15.69 0 01-.23-3.93 15 15 0 012.66-7.32 16 16 0 015.81-5.19 12.86 12.86 0 017.68-1.33 16.28 16.28 0 017.17 3 20.43 20.43 0 015.23 5.73A14.57 14.57 0 0165.41 58a15.88 15.88 0 01-2.17 7.45C60.68 70 56.91 73.62 53.05 76.93s-8 6.27-12.2 9.2A149.88 149.88 0 0128 94.4 139 139 0 010 106.36z"/><path fill="#f7171f" d="M245.46,398.39a189.34,189.34,0,0,1-24.81-14.31c-3.89-2.73-7.91-5.51-10.86-9.38a26.8,26.8,0,0,1-5.41-13.28,19.92,19.92,0,0,1,.5-7.25,34.68,34.68,0,0,1,2.72-6.71A122.93,122.93,0,0,1,215,335.13c2.71-4,5.81-7.61,8.31-11.64,1.26-2,2.46-4.07,3.68-6.12s2.37-4.13,3.41-6.25a29.35,29.35,0,0,0,2.35-6.62,27.86,27.86,0,0,0,.54-7,37.4,37.4,0,0,0-3.56-13.61c-1.92-4.33-4.31-8.47-6.66-12.62q-1.76-3.11-3.78-6c-1.35-2-2.77-3.88-4.12-5.86-2.7-4-5.17-8.05-7.57-12.18-1.2-2.07-2.36-4.16-3.46-6.29a42.16,42.16,0,0,1-2.84-6.62,19.13,19.13,0,0,1-.55-7.18,27.59,27.59,0,0,1,1.65-7,36.48,36.48,0,0,1,3.17-6.42,52.26,52.26,0,0,1,4.25-5.77,52.6,52.6,0,0,0-4.14,5.83,35.2,35.2,0,0,0-3,6.45,26.68,26.68,0,0,0-1.51,6.93,18.58,18.58,0,0,0,.65,7,42.68,42.68,0,0,0,2.87,6.5c1.11,2.11,2.29,4.18,3.5,6.23,2.44,4.1,4.94,8.16,7.67,12.07,1.35,1.95,2.79,3.85,4.17,5.82s2.65,4,3.84,6.08c2.37,4.15,4.78,8.29,6.74,12.68a38.23,38.23,0,0,1,3.69,13.93,28.91,28.91,0,0,1-.55,7.25,29.35,29.35,0,0,1-2.41,6.85c-1.05,2.17-2.25,4.25-3.46,6.31S225.39,322,224.1,324c-2.55,4.09-5.68,7.74-8.36,11.65a120.13,120.13,0,0,0-7.37,12.2,34.6,34.6,0,0,0-2.68,6.54,18.9,18.9,0,0,0-.54,6.95,26.07,26.07,0,0,0,5.14,13c2.84,3.8,6.78,6.59,10.64,9.36A187.79,187.79,0,0,0,245.46,398.39Z"/><polygon fill="#ffcd52" points="216.39 231.59 211.67 227.81 206.27 231.59 199.79 226 193.55 231.59 196.55 211.06 213.39 211.06 216.39 231.59"/><ellipse cx="199.79" cy="118" fill="#ff5061" rx="65.88" ry="99"/><path fill="#ffcd52" d="M199.79,19C168,19,141.38,53,135.24,98.08A53.6,53.6,0,0,0,157.67,109c12,2.45,23.6-.65,45.36-6.48,18-4.81,18.51-7.26,26.64-7.2,17.44.15,24.22,11.55,35.84,15.85C263.17,59.68,234.64,19,199.79,19Z"/><circle cx="189.89" cy="63.35" r="6.44" fill="#ff5061"/><circle cx="179.51" cy="104.73" r="6.44" fill="#ff5061"/><circle cx="149.97" cy="86.76" r="6.44" fill="#ff5061"/><circle cx="217" cy="86.76" r="6.44" fill="#ff5061"/><path fill="#ff5061" d="M150,61.2a6.44,6.44,0,0,0,2.66-12.3,100.23,100.23,0,0,0-6.27,11.19A6.4,6.4,0,0,0,150,61.2Z"/><circle cx="213.39" cy="34.92" r="6.44" fill="#ff5061"/><circle cx="177.01" cy="34.92" r="6.44" fill="#ff5061"/><circle cx="242.17" cy="58.77" r="6.44" fill="#ff5061"/><path fill="#ff5061" d="M263,89.93a6.44,6.44,0,0,0,1.85,12.33Q264.15,95.95,263,89.93Z"/><path fill="none" stroke="#008ef8" stroke-linecap="round" stroke-linejoin="round" d="M404.68,83,315.81,63.81a7.46,7.46,0,0,1-5.88-7.29V15.42A7.45,7.45,0,0,1,317.39,8h88.86a7.45,7.45,0,0,1,7.46,7.45V75.67A7.46,7.46,0,0,1,404.68,83Z"/><polygon fill="none" stroke="#008ef8" stroke-linecap="round" stroke-linejoin="round" points="318.25 64.33 321.73 74.08 337.44 68.47 318.25 64.33"/><polygon fill="#008ef8" points="336.8 68.7 337.44 68.47 318.25 64.33 319.48 67.78 336.8 68.7"/><polygon fill="#008ef8" points="361.86 56.9 359.02 56.9 355.22 20.02 364.79 17.98 361.86 56.9"/><circle cx="360.28" cy="62.09" r="2.24" fill="#008ef8"/><path fill="#0234c1" d="M399.72,178.67c.55,2.62.91,5.25,1.2,7.89s.49,5.27.65,7.92.22,5.29.21,7.94-.08,5.3-.35,8a78.74,78.74,0,0,1-1.21-7.89c-.3-2.63-.49-5.27-.65-7.92s-.22-5.29-.2-7.94A79,79,0,0,1,399.72,178.67Z"/><path fill="#0234c1" d="M416.43 193.68c-2.62.55-5.25.91-7.89 1.2s-5.27.48-7.91.65-5.29.22-7.95.21a79 79 0 01-8-.36c2.62-.55 5.25-.91 7.89-1.2s5.28-.49 7.92-.65 5.29-.22 7.94-.2A76 76 0 01416.43 193.68zM420.65 198.11a36.56 36.56 0 011.06 5.3c.24 1.77.42 3.54.51 5.32s.12 3.57.07 5.36a36.6 36.6 0 01-.49 5.38 36.6 36.6 0 01-1.07-5.3c-.24-1.77-.41-3.55-.5-5.33s-.12-3.56-.07-5.35A36.35 36.35 0 01420.65 198.11z"/><path fill="#0234c1" d="M431.9 208.21a37.41 37.41 0 01-5.3 1.07c-1.77.24-3.54.41-5.32.51s-3.57.11-5.35.07a37.77 37.77 0 01-5.38-.5 36.16 36.16 0 015.29-1.06c1.77-.24 3.55-.42 5.33-.51s3.56-.12 5.35-.07A39.26 39.26 0 01431.9 208.21zM56.69 324.72a78.74 78.74 0 011.21 7.89c.3 2.63.48 5.28.64 7.92s.23 5.29.21 7.94a78.83 78.83 0 01-.35 8 78.74 78.74 0 01-1.21-7.89c-.3-2.63-.48-5.27-.64-7.91s-.22-5.29-.21-7.95S56.42 327.39 56.69 324.72z"/><path fill="#0234c1" d="M73.41 339.73c-2.63.55-5.26.91-7.89 1.2s-5.28.49-7.92.65-5.29.22-7.94.21-5.31-.08-8-.35a79 79 0 017.88-1.21c2.64-.3 5.28-.49 7.92-.65s5.29-.22 7.94-.2A79 79 0 0173.41 339.73zM77.62 344.16a38 38 0 011.07 5.3c.24 1.77.41 3.55.51 5.33s.11 3.56.07 5.35a37.77 37.77 0 01-.5 5.38 36.56 36.56 0 01-1.06-5.3c-.24-1.77-.42-3.55-.51-5.33s-.12-3.56-.07-5.35A39.41 39.41 0 0177.62 344.16z"/><path fill="#0234c1" d="M88.88 354.27a38 38 0 01-5.3 1.06c-1.77.24-3.55.41-5.33.51s-3.56.12-5.35.07a36.35 36.35 0 01-5.38-.49 35.3 35.3 0 015.3-1.07c1.77-.24 3.54-.42 5.32-.51s3.57-.11 5.36-.06A36.6 36.6 0 0188.88 354.27zM259.61 0c.55 2.62.91 5.25 1.2 7.89s.49 5.27.65 7.92.22 5.29.21 7.94a79 79 0 01-.36 8c-.55-2.62-.91-5.25-1.2-7.89s-.49-5.27-.65-7.92-.22-5.29-.2-7.94A79 79 0 01259.61 0z"/><path fill="#0234c1" d="M276.32 15c-2.62.55-5.25.91-7.89 1.2s-5.27.49-7.92.65-5.28.22-7.94.21a79 79 0 01-8-.36c2.62-.55 5.25-.91 7.89-1.2s5.28-.49 7.92-.65 5.29-.22 7.94-.2A76 76 0 01276.32 15zM280.54 19.44a36.56 36.56 0 011.06 5.3c.24 1.77.42 3.55.51 5.33s.12 3.56.07 5.35a36.47 36.47 0 01-.49 5.38 36.6 36.6 0 01-1.07-5.3c-.24-1.77-.41-3.55-.5-5.33s-.12-3.56-.07-5.35A36.35 36.35 0 01280.54 19.44z"/><path fill="#0234c1" d="M291.79,29.54a37.7,37.7,0,0,1-5.3,1.07c-1.77.24-3.54.41-5.32.51s-3.57.11-5.35.07a36.37,36.37,0,0,1-5.38-.5,36.16,36.16,0,0,1,5.29-1.06c1.77-.24,3.55-.42,5.33-.51s3.56-.11,5.35-.06A37.73,37.73,0,0,1,291.79,29.54Z"/><path fill="#ffcd52" d="M235.73,136.09A160.88,160.88,0,0,1,237,159.21a120,120,0,0,1-2.6,23c-1.67,7.54-4.37,15-8.91,21.39a34.2,34.2,0,0,1-8.27,8.23,31,31,0,0,1-10.7,4.71,35.57,35.57,0,0,1-5.8.84,29.44,29.44,0,0,1-5.86-.1,26.37,26.37,0,0,1-11-3.87,32.21,32.21,0,0,1-8.51-8,50.63,50.63,0,0,1-5.81-10.09,96.67,96.67,0,0,1-6.41-22.27A146.17,146.17,0,0,1,161,150a146.35,146.35,0,0,0,2.52,23,96.94,96.94,0,0,0,6.62,22,52.82,52.82,0,0,0,5.81,9.88,31.39,31.39,0,0,0,8.3,7.75,25.52,25.52,0,0,0,10.65,3.68,29.25,29.25,0,0,0,5.69.08,35.53,35.53,0,0,0,5.64-.84,30.41,30.41,0,0,0,10.39-4.52,33.5,33.5,0,0,0,8.08-8c4.47-6.21,7.11-13.58,8.89-21a119.53,119.53,0,0,0,2.85-22.87A159.31,159.31,0,0,0,235.73,136.09Z"/><path fill="#ffcd52" d="M199.79,217c-.21-5.27-.31-10.54-.38-15.81s-.08-10.55-.12-15.82,0-10.55.11-15.82l.14-7.91c.09-2.64.13-5.28.25-7.91.11,2.63.16,5.27.24,7.91l.14,7.91c.08,5.27.08,10.54.12,15.82s0,10.54-.12,15.82S200,211.73,199.79,217Z"/></g></g></svg>