<svg xmlns="http://www.w3.org/2000/svg" xmlns:xlink="http://www.w3.org/1999/xlink" id="visual" width="900" height="675" version="1.1" viewBox="0 0 900 675"><path fill="#F7F7F7" stroke-linecap="round" stroke-linejoin="miter" d="M0 100L21.5 99.2C43 98.3 86 96.7 128.8 87.5C171.7 78.3 214.3 61.7 257.2 60.3C300 59 343 73 385.8 81.3C428.7 89.7 471.3 92.3 514.2 93.3C557 94.3 600 93.7 642.8 85.3C685.7 77 728.3 61 771.2 59.5C814 58 857 71 878.5 77.5L900 84L900 0L878.5 0C857 0 814 0 771.2 0C728.3 0 685.7 0 642.8 0C600 0 557 0 514.2 0C471.3 0 428.7 0 385.8 0C343 0 300 0 257.2 0C214.3 0 171.7 0 128.8 0C86 0 43 0 21.5 0L0 0Z"/></svg>