<svg id="visual" viewBox="0 0 900 675" width="900" height="675" xmlns="http://www.w3.org/2000/svg"
    xmlns:xlink="http://www.w3.org/1999/xlink" version="1.1">
    <path
        d="M0 573L21.5 573.8C43 574.7 86 576.3 128.8 585.5C171.7 594.7 214.3 611.3 257.2 612.7C300 614 343 600 385.8 591.7C428.7 583.3 471.3 580.7 514.2 579.7C557 578.7 600 579.3 642.8 587.7C685.7 596 728.3 612 771.2 613.5C814 615 857 602 878.5 595.5L900 589L900 676L878.5 676C857 676 814 676 771.2 676C728.3 676 685.7 676 642.8 676C600 676 557 676 514.2 676C471.3 676 428.7 676 385.8 676C343 676 300 676 257.2 676C214.3 676 171.7 676 128.8 676C86 676 43 676 21.5 676L0 676Z"
        fill="#F7F7F7" stroke-linecap="round" stroke-linejoin="miter"></path>
</svg>